<svg width="31" height="31" viewBox="0 0 31 31" fill="none" xmlns="http://www.w3.org/2000/svg">
<path fill-rule="evenodd" clip-rule="evenodd" d="M8.77905 22.4084C9.00541 22.6349 9.27416 22.8145 9.56996 22.9371C9.86575 23.0596 10.1828 23.1227 10.503 23.1227C10.8232 23.1227 11.1402 23.0596 11.436 22.9371C11.7318 22.8145 12.0005 22.6349 12.2269 22.4084L8.77905 18.9593C8.55242 19.1857 8.37263 19.4545 8.24997 19.7505C8.1273 20.0464 8.06416 20.3636 8.06416 20.6839C8.06416 21.0042 8.1273 21.3214 8.24997 21.6173C8.37263 21.9132 8.55242 22.182 8.77905 22.4084ZM14.7473 7.55059L13.8637 8.43418C12.9106 9.38725 11.1702 10.6438 9.95637 11.2507L6.27939 13.0898C5.6761 13.3921 5.56763 14.0331 6.05148 14.517L16.4791 24.9446C16.9642 25.4273 17.6028 25.3261 17.9063 24.7155L19.7466 21.0398C20.3487 19.8356 21.6064 18.0904 22.5632 17.1324L23.4468 16.2476C24.4501 15.2444 25.0758 13.9252 25.2179 12.5135C25.3601 11.1018 25.0099 9.68433 24.2268 8.50122C24.3578 8.3962 24.466 8.26547 24.5447 8.11708C24.6233 7.9687 24.6708 7.80578 24.6841 7.63837C24.6974 7.47095 24.6764 7.30258 24.6222 7.1436C24.568 6.98463 24.4819 6.83843 24.3691 6.71399C24.2564 6.58954 24.1193 6.4895 23.9664 6.42C23.8135 6.3505 23.648 6.31303 23.4801 6.30988C23.3122 6.30674 23.1454 6.33798 22.99 6.4017C22.8346 6.46542 22.6939 6.56027 22.5766 6.6804C22.5485 6.71087 22.5205 6.74012 22.4961 6.7718C21.4888 6.10388 20.3069 5.74778 19.0982 5.74805C18.2901 5.74709 17.4898 5.90571 16.7431 6.21483C15.9965 6.52395 15.3182 6.97747 14.7473 7.54937V7.55059Z" fill="#919BA7"/>
</svg>
