<svg width="24" height="29" viewBox="0 0 24 29" fill="none" xmlns="http://www.w3.org/2000/svg">
<g opacity="0.3">
<path opacity="0.3" d="M16.7596 6.1099C16.1035 6.10926 15.4746 5.84837 15.0107 5.38449C14.5468 4.92061 14.2859 4.29163 14.2853 3.63561V0.200196H3.23024C2.8061 0.200038 2.38607 0.283429 1.99417 0.445632C1.60226 0.607836 1.24617 0.84567 0.946198 1.14553C0.646227 1.44539 0.40827 1.80141 0.24592 2.19325C0.0835709 2.58509 -2.92858e-08 3.00508 0 3.42922V22.8946C-2.92857e-08 23.3188 0.0835709 23.7388 0.24592 24.1306C0.40827 24.5225 0.646227 24.8785 0.946198 25.1784C1.24617 25.4782 1.60226 25.716 1.99417 25.8782C2.38607 26.0404 2.8061 26.1239 3.23024 26.1237H16.5016C16.9256 26.1237 17.3455 26.0402 17.7373 25.8779C18.129 25.7156 18.485 25.4778 18.7849 25.1779C19.0847 24.8781 19.3225 24.5221 19.4848 24.1304C19.6471 23.7386 19.7306 23.3187 19.7306 22.8946V6.1099H16.7596Z" fill="#0072FF"/>
</g>
<path d="M19.7305 6.1099H16.7594C16.1034 6.10926 15.4744 5.84837 15.0106 5.38449C14.5467 4.92061 14.2858 4.29163 14.2852 3.63561V0.200195L19.7305 6.1099Z" fill="#0072FF"/>
<path d="M15.671 10.2474H3.28276C3.16374 10.2474 3.0496 10.2001 2.96543 10.1159C2.88127 10.0318 2.83399 9.91763 2.83399 9.79861C2.83383 9.73958 2.84533 9.68109 2.86781 9.6265C2.89029 9.57191 2.92332 9.52229 2.96501 9.48049C3.0067 9.43869 3.05623 9.40554 3.11075 9.38291C3.16528 9.36028 3.22373 9.34863 3.28276 9.34863H15.671C15.7903 9.34863 15.9047 9.39605 15.9891 9.48043C16.0735 9.56482 16.1209 9.67927 16.1209 9.79861C16.1206 9.91774 16.0731 10.0319 15.9887 10.116C15.9044 10.2002 15.7901 10.2474 15.671 10.2474Z" fill="#0072FF"/>
<path d="M15.671 12.932H3.28276C3.16374 12.932 3.0496 12.8847 2.96543 12.8005C2.88127 12.7163 2.83399 12.6022 2.83399 12.4832C2.83383 12.4241 2.84533 12.3657 2.86781 12.3111C2.89029 12.2565 2.92332 12.2069 2.96501 12.1651C3.0067 12.1233 3.05623 12.0901 3.11075 12.0675C3.16528 12.0449 3.22373 12.0332 3.28276 12.0332H15.671C15.7903 12.0332 15.9047 12.0806 15.9891 12.165C16.0735 12.2494 16.1209 12.3638 16.1209 12.4832C16.1206 12.6023 16.0731 12.7164 15.9887 12.8006C15.9044 12.8847 15.7901 12.932 15.671 12.932Z" fill="#0072FF"/>
<path d="M15.671 15.6156H3.28276C3.22373 15.6156 3.16528 15.6039 3.11075 15.5813C3.05623 15.5586 3.0067 15.5255 2.96501 15.4837C2.92332 15.4419 2.89029 15.3923 2.86781 15.3377C2.84533 15.2831 2.83383 15.2246 2.83399 15.1656C2.83399 15.0466 2.88127 14.9324 2.96543 14.8482C3.0496 14.7641 3.16374 14.7168 3.28276 14.7168H15.671C15.7901 14.7168 15.9044 14.764 15.9887 14.8482C16.0731 14.9323 16.1206 15.0464 16.1209 15.1656C16.1209 15.2849 16.0735 15.3994 15.9891 15.4838C15.9047 15.5681 15.7903 15.6156 15.671 15.6156Z" fill="#0072FF"/>
<path d="M10.7848 18.3001H3.28276C3.22373 18.3001 3.16528 18.2885 3.11075 18.2658C3.05623 18.2432 3.0067 18.21 2.96501 18.1682C2.92332 18.1264 2.89029 18.0768 2.86781 18.0223C2.84533 17.9677 2.83383 17.9092 2.83399 17.8501C2.83399 17.7311 2.88127 17.6169 2.96543 17.5328C3.0496 17.4486 3.16374 17.4014 3.28276 17.4014H10.7848C10.9038 17.4014 11.018 17.4486 11.1021 17.5328C11.1863 17.6169 11.2336 17.7311 11.2336 17.8501C11.2337 17.9092 11.2222 17.9677 11.1998 18.0223C11.1773 18.0768 11.1442 18.1264 11.1026 18.1682C11.0609 18.21 11.0113 18.2432 10.9568 18.2658C10.9023 18.2885 10.8438 18.3001 10.7848 18.3001Z" fill="#0072FF"/>
<path d="M22.0737 20.6729H7.06967C6.00536 20.6729 5.14258 21.5356 5.14258 22.6V27.0733C5.14258 28.1376 6.00536 29.0004 7.06967 29.0004H22.0737C23.138 29.0004 24.0008 28.1376 24.0008 27.0733V22.6C24.0008 21.5356 23.138 20.6729 22.0737 20.6729Z" fill="#0072FF"/>
<path d="M9.14575 25.8047V26.677H8.24219V25.8047H9.14575Z" fill="white"/>
<path d="M12.6187 25.8073C12.4684 26.0801 12.2415 26.3029 11.9659 26.448C11.6558 26.6066 11.311 26.6854 10.9627 26.6772H9.59961V23.069H10.9627C11.3112 23.0604 11.6565 23.1374 11.9683 23.2934C12.2428 23.4359 12.469 23.6563 12.6187 23.927C12.7738 24.215 12.8519 24.5382 12.8455 24.8653C12.8516 25.1935 12.7735 25.5178 12.6187 25.8073ZM11.6803 25.6261C11.7779 25.5259 11.8534 25.4066 11.9022 25.2756C11.9509 25.1446 11.9718 25.0048 11.9635 24.8653C11.9719 24.726 11.951 24.5864 11.9023 24.4556C11.8535 24.3248 11.7779 24.2056 11.6803 24.1057C11.4617 23.9141 11.1762 23.8166 10.886 23.8346H10.4744V25.896H10.8871C11.1767 25.9135 11.4615 25.8166 11.6803 25.6261Z" fill="white"/>
<path d="M15.9817 23.2498C16.2562 23.4058 16.4831 23.6335 16.638 23.9086C16.8004 24.1991 16.8831 24.5274 16.878 24.8601C16.8835 25.1937 16.8007 25.5228 16.638 25.8141C16.4826 26.0903 16.2549 26.3188 15.9793 26.4753C15.6988 26.6355 15.3807 26.7183 15.0577 26.7152C14.7347 26.7181 14.4167 26.6353 14.1362 26.4753C13.8606 26.3191 13.6332 26.0905 13.4786 25.8141C13.3154 25.523 13.2325 25.1938 13.2386 24.8601C13.2324 24.5272 13.3152 24.1987 13.4786 23.9086C13.634 23.6334 13.8613 23.4057 14.1362 23.2498C14.4167 23.0898 14.7347 23.007 15.0577 23.0098C15.3815 23.0068 15.7003 23.0896 15.9817 23.2498ZM14.3737 24.1018C14.1967 24.3135 14.1067 24.5846 14.1218 24.8601C14.1066 25.1346 14.1967 25.4046 14.3737 25.6149C14.46 25.7086 14.5657 25.7823 14.6834 25.8308C14.8012 25.8793 14.9281 25.9015 15.0553 25.8957C15.1821 25.9011 15.3086 25.8788 15.4259 25.8303C15.5432 25.7818 15.6485 25.7083 15.7345 25.6149C15.9123 25.4049 16.0033 25.135 15.9889 24.8601C16.0033 24.5858 15.9132 24.3161 15.7369 24.1054C15.6507 24.0116 15.545 23.9379 15.4273 23.8894C15.3095 23.8408 15.1825 23.8187 15.0553 23.8246C14.9284 23.8188 14.8018 23.8405 14.6841 23.8884C14.5664 23.9362 14.4606 24.009 14.3737 24.1018Z" fill="white"/>
<path d="M20.1556 23.3952C20.46 23.6428 20.667 23.9901 20.74 24.3756H19.8161C19.7537 24.2158 19.6446 24.0786 19.5029 23.982C19.3535 23.8847 19.1783 23.835 19.0001 23.8392C18.8825 23.8354 18.7655 23.8588 18.6584 23.9075C18.5512 23.9562 18.4567 24.0289 18.3821 24.12C18.2151 24.3337 18.1299 24.6001 18.1422 24.8712C18.1299 25.1411 18.2151 25.4064 18.3821 25.6187C18.4573 25.7089 18.552 25.7807 18.6591 25.8287C18.7662 25.8768 18.8828 25.8997 19.0001 25.8959C19.1783 25.9006 19.3538 25.8508 19.5029 25.7531C19.6438 25.6582 19.7529 25.5232 19.8161 25.3655H20.74C20.6658 25.7499 20.4589 26.096 20.1556 26.3435C19.8292 26.5927 19.426 26.72 19.0157 26.7035C18.6924 26.7103 18.3732 26.6298 18.0918 26.4707C17.8283 26.3175 17.6146 26.0917 17.4762 25.8203C17.3274 25.5225 17.2533 25.1931 17.2602 24.8603C17.2534 24.5276 17.3275 24.1982 17.4762 23.9004C17.6146 23.6289 17.8283 23.4032 18.0918 23.25C18.3732 23.0908 18.6924 23.0104 19.0157 23.0172C19.4282 23.0063 19.8314 23.14 20.1556 23.3952Z" fill="white"/>
</svg>
