<?xml version="1.0" encoding="UTF-8"?>
<svg version="1.1" xmlns="http://www.w3.org/2000/svg" width="512" height="512">
<path d="M0 0 C1.41702674 -0.00489804 2.83404949 -0.01109204 4.25106555 -0.01845789 C8.11752519 -0.03476523 11.98377969 -0.0325584 15.85026157 -0.02708292 C20.03107915 -0.02440125 24.21184344 -0.03896587 28.39263916 -0.05117798 C36.57341634 -0.07218722 44.75412258 -0.07677539 52.93492355 -0.07499009 C59.58880433 -0.07368004 66.24266306 -0.07749899 72.89653969 -0.08491516 C74.81665335 -0.08701447 76.73676701 -0.08911207 78.65688068 -0.09120798 C79.61272769 -0.09225151 80.56857471 -0.09329504 81.55338679 -0.09437019 C99.61386988 -0.11325483 117.67431233 -0.11222798 135.73480121 -0.10540086 C152.2323988 -0.09982832 168.72984096 -0.12064169 185.22740223 -0.15376133 C202.19158725 -0.18755174 219.15569793 -0.2026599 236.11991721 -0.1980443 C245.63414747 -0.19580481 255.14823414 -0.20096622 264.66243553 -0.22593689 C272.76380379 -0.24701939 280.86494973 -0.25047354 288.96632733 -0.2316373 C293.09400295 -0.22252159 297.22126486 -0.22120717 301.34890747 -0.24199295 C326.24029902 -0.35900498 345.3521845 1.16390474 364.44013977 19.01159668 C377.81389826 32.95688331 382.19388457 49.05464316 382.1197052 67.88395691 C382.12460184 69.43297685 382.1307952 70.98199314 382.13816309 72.5310033 C382.1544881 76.76230794 382.15225992 80.99342536 382.14678812 85.2247504 C382.14410867 89.79820759 382.15866694 94.37161591 382.17088318 98.9450531 C382.19190159 107.89585989 382.19648006 116.84660186 382.19469529 125.79743042 C382.19338573 133.07678728 382.19720174 140.35612399 382.20462036 147.63547707 C382.20671965 149.73533418 382.20881725 151.83519129 382.21091318 153.9350484 C382.21247847 155.50298748 382.21247847 155.50298748 382.21407539 157.1026021 C382.23296367 176.85700815 382.23193204 196.61137704 382.22510606 216.36578838 C382.21953306 234.41534681 382.24034823 252.4647632 382.27346653 270.51428845 C382.30724712 289.06952978 382.32236632 307.62470316 382.3177495 326.17997581 C382.31550905 336.58846279 382.32068567 346.99681853 382.34564209 357.40527916 C382.36671182 366.2678756 382.3701912 375.13026886 382.3513425 383.99287381 C382.34221912 388.50938779 382.34093658 393.02552351 382.36169815 397.54200745 C382.38054012 401.68697285 382.37575869 405.83125371 382.35315233 409.97619412 C382.3489996 411.46537408 382.35305283 412.9546079 382.36674827 414.44373067 C382.53167174 433.70779966 376.30713368 448.99300738 363.10810852 463.10925293 C349.58013681 476.08279957 333.79759409 480.86716134 315.43040466 480.78208923 C314.01124047 480.78626977 312.59207961 480.79175121 311.17292488 480.79840904 C307.30066674 480.81278813 303.42862281 480.80864272 299.55635333 480.80124223 C295.36946317 480.79649407 291.18261825 480.80903493 286.9957428 480.81925964 C278.80393515 480.83642083 270.6122043 480.83729322 262.42038335 480.83204674 C255.75932659 480.82799878 249.09829247 480.82945603 242.43723679 480.834795 C241.48775631 480.83554342 240.53827583 480.83629184 239.56002321 480.83706294 C237.63090659 480.83859448 235.70178997 480.84013283 233.77267335 480.84167791 C215.69797122 480.85539328 197.62331241 480.84997206 179.54861127 480.8384927 C163.02960822 480.82856152 146.51071719 480.84150071 129.99173142 480.86542689 C113.01061241 480.88983623 96.02954554 480.89942124 79.04840934 480.89277416 C69.52256186 480.889286 59.99680051 480.89148739 50.47096634 480.90902519 C42.36184789 480.92377012 34.25287622 480.92435272 26.14376058 480.90695428 C22.01043782 480.89846071 17.87737702 480.89625426 13.74406815 480.91160583 C9.95275618 480.92551231 6.16192913 480.92061421 2.37064479 480.9013666 C0.36562945 480.8958656 -1.63941096 480.90982821 -3.64437854 480.9247207 C-21.58749711 480.78006758 -36.78184972 473.73789897 -49.47001648 461.23034668 C-62.5442783 447.16184442 -67.06517533 431.15727002 -66.90962219 412.30358887 C-66.91540034 410.75024889 -66.92335271 409.19691578 -66.93325841 407.64359665 C-66.95392299 403.42345357 -66.94391087 399.20388364 -66.92832732 394.98373985 C-66.91693314 390.41376448 -66.93451619 385.84388217 -66.94822693 381.27392578 C-66.97037841 372.34046182 -66.96569437 363.40720874 -66.95116372 354.47373676 C-66.9398395 347.20879204 -66.93835431 339.94390611 -66.94378281 332.67895508 C-66.94454897 331.64220666 -66.94531514 330.60545824 -66.94610452 329.5372932 C-66.94770326 327.43069742 -66.94932433 325.32410167 -66.95096748 323.21750593 C-66.96520128 303.49642573 -66.94886948 283.77546202 -66.92196564 264.05440092 C-66.89962904 247.15856412 -66.90350984 230.26289913 -66.92655945 213.36706543 C-66.95335936 193.71317851 -66.96382821 174.05939352 -66.94849813 154.40549088 C-66.9469055 152.30694836 -66.94533365 150.20840583 -66.94378281 148.10986328 C-66.94301143 147.07752902 -66.94224005 146.04519475 -66.9414453 144.98157763 C-66.93714087 137.73126435 -66.94438767 130.4810161 -66.95618057 123.23071289 C-66.97025076 114.38651916 -66.96631104 105.54254712 -66.93977685 96.69837856 C-66.92669923 92.19196827 -66.92138199 87.68592664 -66.93802261 83.17951965 C-66.95306197 79.04398611 -66.94450725 74.90915849 -66.91813485 70.77368784 C-66.91260847 69.28803014 -66.91525664 67.80231119 -66.92751379 66.31669378 C-67.07398424 47.06791544 -60.84594876 31.78448198 -47.65751648 17.67956543 C-34.13725777 4.71341568 -18.35726907 -0.07549504 0 0 Z " fill="#DCEAFC" transform="translate(98.27470397949219,15.6055908203125)"/>
<path d="M0 0 C5.67900114 2.69940511 9.68404362 6.30801119 14.05796051 10.77417374 C15.17161987 11.88695694 15.17161987 11.88695694 16.3077774 13.02222061 C18.74127796 15.4584913 21.16032942 17.90858679 23.57944489 20.35913467 C25.27107348 22.0582294 26.96359173 23.75643882 28.65695953 25.4538002 C33.09796496 29.91003236 37.52682322 34.3781479 41.95322418 38.84888077 C46.4775792 43.41425183 51.01336736 47.96823262 55.54819489 52.52319717 C64.43439368 61.45221467 73.30819047 70.39345191 82.17319489 79.34350967 C86.10288979 77.52378727 88.78235203 74.98366783 91.78037262 71.9157753 C92.32887878 71.36274231 92.87738495 70.80970932 93.44251251 70.23991776 C94.63036252 69.04112728 95.81592796 67.8400697 96.99945641 66.63701248 C98.87374856 64.73252653 100.75466701 62.83482172 102.63756561 60.93884659 C107.98883127 55.54785204 113.32731135 50.14425907 118.66269684 44.73755264 C121.92887175 41.42864828 125.20233638 38.12709656 128.48018837 34.82976151 C129.72662402 33.57276405 130.97013617 32.3128606 132.21063805 31.05000687 C133.94586211 29.28356449 135.69013353 27.52653926 137.43662262 25.77124405 C138.19971992 24.98725487 138.19971992 24.98725487 138.97823334 24.18742752 C143.71483361 19.46298332 147.36254011 18.15775713 154.01303864 17.98022842 C160.60305908 19.08849588 164.89515559 23.57306563 169.48569489 28.03100967 C170.90878538 29.38917332 172.33196542 30.74724315 173.75522614 32.10522842 C174.48435211 32.80567276 175.21347809 33.5061171 175.96469879 34.22778702 C179.51063129 37.6247637 183.09346554 40.98223244 186.67319489 44.34350967 C188.10041689 45.68711238 189.52750037 47.03086226 190.95444489 48.37475967 C195.02217918 52.20321548 199.09673876 56.02434467 203.17319489 59.84350967 C209.39668601 65.67419663 215.60921448 71.51640973 221.81772614 77.36304092 C226.59705221 81.86277206 231.38295818 86.35539726 236.17319489 90.84350967 C238.84013116 93.34322219 241.50672382 95.84330092 244.17319489 98.34350967 C244.91730621 99.04105362 245.66141754 99.73859756 246.4280777 100.45727921 C248.71911711 102.60579297 251.00880821 104.75573504 253.29819489 106.90600967 C253.99686676 107.56085342 254.69553864 108.21569717 255.41538239 108.89038467 C256.41311676 109.82817764 256.41311676 109.82817764 257.43100739 110.78491592 C258.00995758 111.32833633 258.58890778 111.87175674 259.18540192 112.43164444 C259.8413736 113.06255997 260.49734528 113.69347549 261.17319489 114.34350967 C262.18850784 115.14639923 263.2038208 115.94928879 264.24990082 116.77650833 C267.74518617 120.31005571 267.89676375 123.37729972 267.97525787 128.21034622 C267.96154144 129.23897278 267.94782501 130.26759933 267.93369293 131.32739639 C267.94705437 132.97265053 267.94705437 132.97265053 267.96068573 134.65114212 C267.98198388 138.27576696 267.95963598 141.89861553 267.93491364 145.52319717 C267.93641692 148.05462195 267.93984906 150.58604624 267.94512177 153.11746597 C267.94945611 158.42874686 267.93323446 163.73940325 267.90048981 169.05054092 C267.86318904 175.15023766 267.86468963 181.24896633 267.88753098 187.3487128 C267.90866792 193.25198619 267.90098959 199.15490705 267.88121223 205.05817413 C267.87540516 207.55133942 267.87660085 210.04453211 267.88523674 212.53768921 C267.93834356 235.54456222 264.80319514 252.68212381 248.55600739 270.05835342 C235.02803568 283.03190006 219.24549296 287.81626183 200.87830353 287.73118973 C199.45913933 287.73537026 198.03997848 287.7408517 196.62082374 287.74750954 C192.74856561 287.76188863 188.87652168 287.75774322 185.0042522 287.75034273 C180.81736203 287.74559457 176.63051712 287.75813543 172.44364166 287.76836014 C164.25183402 287.78552133 156.06010316 287.78639372 147.86828221 287.78114723 C141.20722546 287.77709927 134.54619133 287.77855652 127.88513565 287.78389549 C126.93565517 287.78464391 125.98617469 287.78539234 125.00792208 287.78616344 C123.07880545 287.78769498 121.14968883 287.78923333 119.22057222 287.79077841 C101.14587008 287.80449377 83.07121127 287.79907255 64.99651013 287.78759319 C48.47750708 287.77766202 31.95861606 287.79060121 15.43963028 287.81452738 C-1.54148872 287.83893672 -18.5225556 287.84852173 -35.50369179 287.84187466 C-45.02953927 287.83838649 -54.55530062 287.84058788 -64.0811348 287.85812569 C-72.19025325 287.87287062 -80.29922491 287.87345321 -88.40834056 287.85605478 C-92.54166332 287.84756121 -96.67472411 287.84535475 -100.80803299 287.86070633 C-104.59934496 287.8746128 -108.390172 287.86971471 -112.18145634 287.85046709 C-114.18647169 287.84496609 -116.1915121 287.8589287 -118.19647968 287.8738212 C-136.13959825 287.72916808 -151.33395085 280.68699946 -164.02211761 268.17944717 C-173.09821314 258.41315427 -177.38681536 248.05115942 -180.82680511 235.34350967 C-181.10737007 234.3617778 -181.38793503 233.38004593 -181.67700195 232.36856461 C-187.4572255 211.39256811 -190.50032211 185.59524912 -179.38703728 165.77582932 C-161.25069071 137.15011262 -133.44027119 114.00693012 -108.73403683 91.14333951 C-101.14099568 84.1165801 -93.63640554 77.00696151 -86.2022934 69.81225967 C-85.70984455 69.33571709 -85.2173957 68.85917451 -84.71002416 68.36819124 C-82.72982366 66.45130942 -80.75021375 64.53382045 -78.77136644 62.6155417 C-63.68765932 47.99375529 -48.52743154 33.45227935 -33.16809082 19.11981583 C-31.57208977 17.63002647 -29.97812586 16.13805132 -28.38635635 14.64374161 C-26.21439379 12.60694783 -24.03395121 10.5797088 -21.85033417 8.55542374 C-21.2219138 7.96396687 -20.59349343 7.37250999 -19.94603002 6.76313019 C-14.20549191 1.48258186 -8.1183897 -2.91746736 0 0 Z " fill="#5392F9" transform="translate(212.8268051147461,208.65649032592773)"/>
<path d="M0 0 C4.04568268 2.39780705 7.15433496 5.32173652 10.515625 8.5859375 C11.9387155 9.94410115 13.36189553 11.30217098 14.78515625 12.66015625 C15.51428223 13.36060059 16.2434082 14.06104492 16.99462891 14.78271484 C20.54056141 18.17969153 24.12339566 21.53716026 27.703125 24.8984375 C29.13034701 26.24204021 30.55743049 27.58579008 31.984375 28.9296875 C36.05210929 32.7581433 40.12666888 36.57927249 44.203125 40.3984375 C50.42661613 46.22912445 56.63914459 52.07133755 62.84765625 57.91796875 C67.62698233 62.41769988 72.4128883 66.91032508 77.203125 71.3984375 C79.87006127 73.89815002 82.53665394 76.39822875 85.203125 78.8984375 C86.31929199 79.94475342 86.31929199 79.94475342 87.45800781 81.01220703 C89.74904722 83.16072079 92.03873832 85.31066286 94.328125 87.4609375 C95.02679688 88.11578125 95.72546875 88.770625 96.4453125 89.4453125 C97.44304687 90.38310547 97.44304687 90.38310547 98.4609375 91.33984375 C99.0398877 91.88326416 99.61883789 92.42668457 100.21533203 92.98657227 C100.87130371 93.61748779 101.52727539 94.24840332 102.203125 94.8984375 C103.21843796 95.70132706 104.23375092 96.50421661 105.27983093 97.33143616 C108.77511629 100.86498353 108.92669386 103.93222754 109.00518799 108.76527405 C108.99147156 109.7939006 108.97775513 110.82252716 108.96362305 111.88232422 C108.97698448 113.52757835 108.97698448 113.52757835 108.99061584 115.20606995 C109.01191399 118.83069479 108.9895661 122.45354335 108.96484375 126.078125 C108.96634703 128.60954977 108.96977918 131.14097407 108.97505188 133.6723938 C108.97938622 138.98367469 108.96316458 144.29433108 108.93041992 149.60546875 C108.89311915 155.70516548 108.89461975 161.80389415 108.9174611 167.90364063 C108.93859803 173.80691402 108.93091971 179.70983488 108.91114235 185.61310196 C108.90533527 188.10626725 108.90653096 190.59945994 108.91516685 193.09261703 C108.98988882 225.46357991 108.98988882 225.46357991 101.03398132 234.31051636 C100.42979874 234.83453033 99.82561615 235.35854431 99.203125 235.8984375 C94.23311084 231.73125678 89.5575885 227.39419462 84.9834137 222.79898071 C84.29139593 222.10781737 83.59937816 221.41665402 82.88639015 220.70454633 C80.58407202 218.40386631 78.28533005 216.09964713 75.98657227 213.79541016 C74.33060327 212.1391589 72.67441368 210.48312819 71.01802063 208.82730103 C66.53286541 204.34243227 62.05079634 199.85449078 57.56927991 195.36598635 C53.35652159 191.14760396 49.14145143 186.9315339 44.92639422 182.71544878 C36.58153859 174.36840826 28.23891538 166.01914022 19.89770508 157.66845703 C11.79829563 149.55985891 3.69782937 141.45231894 -4.40405273 133.34619141 C-4.90402893 132.84595249 -5.40400512 132.34571357 -5.91913211 131.8303159 C-8.4275444 129.32059851 -10.9359774 126.81090182 -13.4444207 124.30121541 C-34.23178342 103.50349757 -55.01548246 82.70212084 -75.796875 61.8984375 C-74.85491619 60.79088482 -73.91171126 59.68439189 -72.96799564 58.57833576 C-72.44288491 57.96204188 -71.91777418 57.34574799 -71.37675101 56.71077853 C-69.0996245 54.09859264 -66.68435571 51.63053632 -64.23803711 49.1784668 C-63.7184996 48.65396439 -63.1989621 48.12946198 -62.66368103 47.58906555 C-60.96991331 45.88086907 -59.27243322 44.17643135 -57.57421875 42.47265625 C-56.99020357 41.88581369 -56.40618839 41.29897114 -55.80447578 40.69434547 C-52.72154696 37.59651263 -49.63582173 34.50149907 -46.54760742 31.40893555 C-43.36439776 28.22021454 -40.19059228 25.02230015 -37.01883602 21.82219219 C-34.56945687 19.354192 -32.11339801 16.89292276 -29.65545845 14.4334507 C-28.48201756 13.25698804 -27.3110724 12.07803045 -26.14271355 10.89652061 C-24.51091897 9.24765645 -22.86990566 7.60853347 -21.22631836 5.97143555 C-20.29621445 5.037686 -19.36611053 4.10393646 -18.40782166 3.14189148 C-12.96435831 -1.53540036 -6.67519127 -2.62905578 0 0 Z " fill="#4071F7" transform="translate(371.796875,228.1015625)"/>
<path d="M0 0 C9.56227605 8.89782787 15.63532996 19.81468286 16.546875 32.86328125 C16.99994087 47.55307089 12.84985083 60.20834667 2.8359375 71.09375 C-7.83115081 81.19771902 -20.89506494 85.36406347 -35.390625 85.09375 C-49.01769482 84.05301913 -59.34570048 77.52722672 -68.6640625 67.84375 C-77.7690012 56.8866289 -80.52720055 43.78183118 -79.6640625 29.84375 C-77.59696185 16.81050523 -70.87028312 6.08723589 -60.6640625 -2.15625 C-41.52356775 -14.69977811 -18.19797169 -14.72915011 0 0 Z " fill="#5392F9" transform="translate(335.6640625,139.15625)"/>
</svg>
