<svg width="28" height="29" viewBox="0 0 28 29" fill="none" xmlns="http://www.w3.org/2000/svg">
<path d="M25.2245 6.60865C24.558 5.97191 23.6717 5.61659 22.7499 5.61659C21.8281 5.61659 20.9418 5.97191 20.2753 6.60865L0.300293 26.5832H8.39019C8.96498 26.5847 9.53436 26.4722 10.0654 26.2522C10.5964 26.0322 11.0785 25.7091 11.4838 25.3015L25.2245 11.5578C25.5496 11.2329 25.8075 10.8471 25.9834 10.4225C26.1594 9.99795 26.2499 9.54284 26.2499 9.08323C26.2499 8.62362 26.1594 8.16852 25.9834 7.74392C25.8075 7.31932 25.5496 6.93355 25.2245 6.60865ZM10.7561 18.6021L12.5814 16.7769L15.057 19.2527L13.232 21.0781L10.7561 18.6021ZM10.2462 24.0642C10.0029 24.3086 9.71371 24.5025 9.39514 24.6345C9.07658 24.7665 8.73502 24.834 8.39019 24.8332H4.52488L9.51877 19.8394L11.995 22.3157L10.2462 24.0642ZM23.9869 10.3206L16.2939 18.0152L13.8183 15.5397L21.5122 7.8459C21.8455 7.52755 22.2887 7.34991 22.7496 7.34991C23.2104 7.34991 23.6536 7.52755 23.9869 7.8459C24.1494 8.00837 24.2783 8.20126 24.3663 8.41357C24.4543 8.62587 24.4995 8.85343 24.4995 9.08323C24.4995 9.31304 24.4543 9.54059 24.3663 9.7529C24.2783 9.9652 24.1494 10.1581 23.9869 10.3206Z" fill="#5F6D7E"/>
<path d="M13.1249 2.08323C12.5838 2.08487 12.0565 2.25397 11.6154 2.56731C11.1742 2.88065 10.8409 3.32286 10.6612 3.83323H6.83856C6.69176 3.41555 6.44145 3.04191 6.11103 2.74724C5.78061 2.45257 5.38088 2.24649 4.94918 2.14827C4.51749 2.05004 4.06794 2.06288 3.64256 2.18558C3.21717 2.30828 2.82984 2.53684 2.51678 2.84988C2.20372 3.16293 1.97514 3.55024 1.85242 3.97562C1.7297 4.401 1.71683 4.85055 1.81504 5.28225C1.91324 5.71395 2.1193 6.1137 2.41395 6.44413C2.70861 6.77456 3.08223 7.02489 3.49991 7.17171V10.9943C2.91609 11.2007 2.42405 11.6069 2.11073 12.141C1.79741 12.6751 1.683 13.3028 1.78771 13.9131C1.89242 14.5234 2.20952 15.077 2.68295 15.4762C3.15639 15.8753 3.75568 16.0942 4.37491 16.0942C4.99413 16.0942 5.59342 15.8753 6.06686 15.4762C6.54029 15.077 6.85739 14.5234 6.9621 13.9131C7.06681 13.3028 6.9524 12.6751 6.63908 12.141C6.32577 11.6069 5.83372 11.2007 5.24991 10.9943V7.17215C5.61592 7.04161 5.94834 6.83133 6.2231 6.55653C6.49785 6.28172 6.70808 5.94927 6.83856 5.58323H10.6611C10.8223 6.03567 11.1048 6.43509 11.4777 6.73784C11.8506 7.0406 12.2995 7.23504 12.7754 7.29993C13.2513 7.36482 13.7359 7.29766 14.1762 7.10578C14.6165 6.91391 14.9956 6.6047 15.2721 6.21195C15.5486 5.81919 15.7118 5.358 15.7439 4.87877C15.776 4.39954 15.6758 3.9207 15.4542 3.49457C15.2325 3.06844 14.8981 2.71142 14.4873 2.46252C14.0765 2.21362 13.6052 2.08241 13.1249 2.08323ZM4.37491 14.3332C4.20185 14.3332 4.03267 14.2819 3.88878 14.1858C3.74489 14.0896 3.63274 13.953 3.56651 13.7931C3.50028 13.6332 3.48296 13.4573 3.51672 13.2875C3.55048 13.1178 3.63382 12.9619 3.75619 12.8395C3.87856 12.7171 4.03447 12.6338 4.2042 12.6C4.37393 12.5663 4.54987 12.5836 4.70975 12.6498C4.86964 12.7161 5.0063 12.8282 5.10244 12.9721C5.19859 13.116 5.24991 13.2852 5.24991 13.4582C5.24972 13.6902 5.15747 13.9127 4.99342 14.0767C4.82937 14.2408 4.60691 14.333 4.37491 14.3332ZM4.37491 5.58323C4.20185 5.58323 4.03267 5.53192 3.88878 5.43577C3.74489 5.33962 3.63274 5.20297 3.56651 5.04308C3.50028 4.8832 3.48296 4.70726 3.51672 4.53753C3.55048 4.3678 3.63382 4.21189 3.75619 4.08951C3.87856 3.96714 4.03447 3.88381 4.2042 3.85005C4.37393 3.81628 4.54987 3.83361 4.70975 3.89984C4.86964 3.96607 5.0063 4.07822 5.10244 4.22211C5.19859 4.366 5.24991 4.53517 5.24991 4.70823C5.24972 4.94024 5.15747 5.16269 4.99342 5.32675C4.82937 5.4908 4.60691 5.58305 4.37491 5.58323ZM13.1249 5.58323C12.9518 5.58323 12.7827 5.53192 12.6388 5.43577C12.4949 5.33962 12.3827 5.20297 12.3165 5.04308C12.2503 4.8832 12.233 4.70726 12.2667 4.53753C12.3005 4.3678 12.3838 4.21189 12.5062 4.08951C12.6286 3.96714 12.7845 3.88381 12.9542 3.85005C13.1239 3.81628 13.2999 3.83361 13.4598 3.89984C13.6196 3.96607 13.7563 4.07822 13.8524 4.22211C13.9486 4.366 13.9999 4.53517 13.9999 4.70823C13.9997 4.94024 13.9075 5.16269 13.7434 5.32675C13.5794 5.4908 13.3569 5.58305 13.1249 5.58323Z" fill="#5F6D7E"/>
</svg>
