<svg width="28" height="29" viewBox="0 0 28 29" fill="none" xmlns="http://www.w3.org/2000/svg">
<g clip-path="url(#clip0_1634_11729)">
<path d="M19.2502 9.9585H22.7502C22.9823 9.9585 23.2048 10.0507 23.3689 10.2148C23.533 10.3789 23.6252 10.6014 23.6252 10.8335V12.5835H18.3752V10.8335C18.3752 10.6014 18.4674 10.3789 18.6315 10.2148C18.7956 10.0507 19.0181 9.9585 19.2502 9.9585Z" fill="#5F6D7E"/>
<path d="M21.0002 9.0835C21.9667 9.0835 22.7502 8.29999 22.7502 7.3335C22.7502 6.367 21.9667 5.5835 21.0002 5.5835C20.0337 5.5835 19.2502 6.367 19.2502 7.3335C19.2502 8.29999 20.0337 9.0835 21.0002 9.0835Z" fill="#5F6D7E"/>
<path d="M26.2502 16.0835H15.7502C15.2862 16.083 14.8414 15.8984 14.5134 15.5703C14.1853 15.2423 14.0007 14.7975 14.0002 14.3335V3.8335C14.0007 3.36951 14.1852 2.92466 14.5133 2.59657C14.8414 2.26848 15.2862 2.08396 15.7502 2.0835H26.2502C26.7142 2.08403 27.159 2.26857 27.4871 2.59665C27.8151 2.92472 27.9997 3.36953 28.0002 3.8335V14.3335C27.9996 14.7974 27.815 15.2422 27.487 15.5702C27.1589 15.8983 26.7141 16.0829 26.2502 16.0835ZM15.7502 3.8335V14.3335H26.2511L26.2502 3.8335H15.7502Z" fill="#5F6D7E"/>
<path d="M13.1252 26.5835H11.3752V23.0835C11.3816 22.737 11.318 22.3928 11.1883 22.0715C11.0587 21.7501 10.8655 21.4582 10.6205 21.2132C10.3755 20.9682 10.0836 20.775 9.76222 20.6454C9.44087 20.5157 9.09668 20.4521 8.75021 20.4585H5.25021C4.90374 20.4521 4.55955 20.5157 4.2382 20.6454C3.91685 20.775 3.62494 20.9682 3.37991 21.2132C3.13488 21.4582 2.94176 21.7501 2.81209 22.0715C2.68242 22.3928 2.61886 22.737 2.62521 23.0835V26.5835H0.875211V23.0835C0.869528 22.5074 0.97881 21.9359 1.19666 21.4026C1.41451 20.8692 1.73656 20.3846 2.14395 19.9772C2.55135 19.5698 3.0359 19.2478 3.56927 19.0299C4.10264 18.8121 4.6741 18.7028 5.25021 18.7085H8.75021C9.32633 18.7028 9.89779 18.8121 10.4312 19.0299C10.9645 19.2478 11.4491 19.5698 11.8565 19.9772C12.2639 20.3846 12.5859 20.8692 12.8038 21.4026C13.0216 21.9359 13.1309 22.5074 13.1252 23.0835V26.5835Z" fill="#5F6D7E"/>
<path d="M7.00021 9.9585C7.6964 9.9585 8.36408 10.2351 8.85637 10.7273C9.34865 11.2196 9.62521 11.8873 9.62521 12.5835C9.62521 13.2797 9.34865 13.9474 8.85637 14.4397C8.36408 14.9319 7.6964 15.2085 7.00021 15.2085C6.30402 15.2085 5.63634 14.9319 5.14406 14.4397C4.65177 13.9474 4.37521 13.2797 4.37521 12.5835C4.37521 11.8873 4.65177 11.2196 5.14406 10.7273C5.63634 10.2351 6.30402 9.9585 7.00021 9.9585ZM7.00021 8.2085C5.83989 8.2085 4.72709 8.66943 3.90662 9.4899C3.08615 10.3104 2.62521 11.4232 2.62521 12.5835C2.62521 13.7438 3.08615 14.8566 3.90662 15.6771C4.72709 16.4976 5.83989 16.9585 7.00021 16.9585C8.16053 16.9585 9.27333 16.4976 10.0938 15.6771C10.9143 14.8566 11.3752 13.7438 11.3752 12.5835C11.3752 11.4232 10.9143 10.3104 10.0938 9.4899C9.27333 8.66943 8.16053 8.2085 7.00021 8.2085Z" fill="#5F6D7E"/>
</g>
<defs>
<clipPath id="clip0_1634_11729">
<rect width="28" height="28" fill="white" transform="translate(0 0.333496)"/>
</clipPath>
</defs>
</svg>
