<svg xmlns="http://www.w3.org/2000/svg" width="28" height="28" viewBox="0 0 28 28" fill="none">
<path d="M26.25 13.125H22.75V10.5C22.7494 10.036 22.5649 9.59127 22.2368 9.2632C21.9087 8.93514 21.464 8.75058 21 8.75H17.5C17.036 8.75058 16.5913 8.93514 16.2632 9.2632C15.9351 9.59127 15.7506 10.036 15.75 10.5V13.125H12.25V7C12.2494 6.53605 12.0649 6.09127 11.7368 5.7632C11.4087 5.43514 10.964 5.25058 10.5 5.25H7C6.53605 5.25058 6.09127 5.43514 5.7632 5.7632C5.43514 6.09127 5.25058 6.53605 5.25 7V13.125H1.75V14.875H5.25V21C5.25058 21.464 5.43514 21.9087 5.7632 22.2368C6.09127 22.5649 6.53605 22.7494 7 22.75H10.5C10.964 22.7494 11.4087 22.5649 11.7368 22.2368C12.0649 21.9087 12.2494 21.464 12.25 21V14.875H15.75V17.5C15.7506 17.964 15.9351 18.4087 16.2632 18.7368C16.5913 19.0649 17.036 19.2494 17.5 19.25H21C21.464 19.2494 21.9087 19.0649 22.2368 18.7368C22.5649 18.4087 22.7494 17.964 22.75 17.5V14.875H26.25V13.125ZM7 21V7H10.5L10.501 21H7ZM17.5 17.5V10.5H21L21.001 17.5H17.5Z" fill="#808080"/>
</svg>