<svg width="80" height="80" viewBox="0 0 80 80" fill="none" xmlns="http://www.w3.org/2000/svg">
<path d="M40.1229 21.1016C56.5932 8.31517 48.1402 0 48.1402 0C49.3981 13.2185 34.531 16.3396 30.5459 25.4229C27.8265 31.6211 32.4079 37.0484 40.1174 43.8885C39.4358 42.3735 38.3846 40.9015 37.3205 39.4112C33.6909 34.3282 29.9098 29.033 40.1229 21.1016Z" fill="#E76F00"/>
<path d="M42.7522 46.6926C42.7522 46.6926 47.7074 42.6946 43.7833 38.2519C30.4813 23.1796 58.3319 16.3396 58.3319 16.3396C41.3279 24.5312 43.8664 29.3936 48.1402 35.3004C52.7163 41.6344 42.7522 46.6926 42.7522 46.6926Z" fill="#E76F00"/>
<path d="M57.3426 58.6139C72.6058 50.8145 65.5487 43.3194 60.6229 44.3292C59.4156 44.5763 58.8773 44.7904 58.8773 44.7904C58.8773 44.7904 59.3255 44.0999 60.1815 43.8011C69.9263 40.4321 77.4206 53.7373 57.0358 59.007C57.0358 59.0072 57.272 58.7996 57.3426 58.6139Z" fill="#5382A1"/>
<path d="M25.5826 48.7423C16.0328 47.4882 30.8186 44.0348 30.8186 44.0348C30.8186 44.0348 25.0767 43.654 18.0148 47.0108C9.66443 50.9829 38.6702 52.7894 53.6849 48.9062C55.2459 47.858 57.4036 46.9494 57.4036 46.9494C57.4036 46.9494 51.2593 48.0286 45.1403 48.5362C37.653 49.1531 29.6148 49.2732 25.5826 48.7423Z" fill="#5382A1"/>
<path d="M29.2159 56.1895C23.8906 55.6479 27.3775 53.1097 27.3775 53.1097C13.5975 57.6073 35.0444 62.7075 54.2997 57.1706C52.253 56.461 50.9514 55.1634 50.9514 55.1634C41.5408 56.9453 36.1024 56.8882 29.2159 56.1895Z" fill="#5382A1"/>
<path d="M31.5362 64.2479C26.2149 63.6463 29.3237 61.8684 29.3237 61.8684C16.8148 65.3055 36.9323 72.4063 52.8582 65.6943C50.2497 64.6968 48.3819 63.5452 48.3819 63.5452C41.2777 64.8674 37.9829 64.9711 31.5362 64.2479Z" fill="#5382A1"/>
<path d="M64.8466 68.3469C64.8466 68.3469 67.1473 70.211 62.3129 71.6531C53.1203 74.3916 24.0523 75.2185 15.9773 71.7622C13.0746 70.5204 18.5181 68.7971 20.2304 68.4356C22.0161 68.0548 23.0366 68.1257 23.0366 68.1257C19.8085 65.8894 2.17122 72.5167 14.0778 74.4146C46.5487 79.5929 73.2692 72.0829 64.8466 68.3469Z" fill="#5382A1"/>
<path d="M70 72.4197C69.4672 79.2368 46.9693 80.6707 32.3185 79.7484C22.7608 79.1457 20.8453 77.6395 20.8173 77.6174C29.9647 79.1005 45.3872 79.3704 57.892 77.0563C68.9758 75.004 70 72.4197 70 72.4197Z" fill="#5382A1"/>
</svg>
