<svg width="28" height="29" viewBox="0 0 28 29" fill="none" xmlns="http://www.w3.org/2000/svg">
<path d="M22.75 4.16699H19.25V2.41699H17.5V4.16699H10.5V2.41699H8.75V4.16699H5.25C4.2875 4.16699 3.5 4.95449 3.5 5.91699V23.417C3.5 24.3795 4.2875 25.167 5.25 25.167H22.75C23.7125 25.167 24.5 24.3795 24.5 23.417V5.91699C24.5 4.95449 23.7125 4.16699 22.75 4.16699ZM22.75 23.417H5.25V11.167H22.75V23.417ZM22.75 9.41699H5.25V5.91699H8.75V7.66699H10.5V5.91699H17.5V7.66699H19.25V5.91699H22.75V9.41699Z" fill="#5F6D7E"/>
</svg>
