<svg width="24" height="29" viewBox="0 0 24 29" fill="none" xmlns="http://www.w3.org/2000/svg">
<g opacity="0.3">
<path opacity="0.3" d="M16.7604 5.95079C16.1043 5.95015 15.4753 5.68744 15.0114 5.22034C14.5475 4.75323 14.2866 4.11989 14.286 3.4593V0H3.2292C2.37276 0 1.55141 0.342576 0.945813 0.952349C0.34022 1.56212 0 2.38913 0 3.25148V22.8522C0.0012718 23.7138 0.34205 24.5395 0.947505 25.1483C1.55296 25.757 2.37359 26.0989 3.2292 26.0989H16.5024C17.358 26.0989 18.1786 25.757 18.7841 25.1483C19.3895 24.5395 19.7303 23.7138 19.7316 22.8522V5.95079H16.7604Z" fill="#FF3E4C"/>
</g>
<path d="M19.7308 5.95079H16.7596C16.1035 5.95015 15.4745 5.68744 15.0106 5.22034C14.5467 4.75323 14.2858 4.11989 14.2852 3.4593V0L19.7308 5.95079Z" fill="#FF3E4C"/>
<path d="M15.6728 18.2253H3.28398C3.16464 18.2253 3.05018 18.1776 2.96578 18.0926C2.88139 18.0076 2.83398 17.8924 2.83398 17.7722C2.8343 17.6522 2.88185 17.5373 2.96621 17.4526C3.05057 17.3679 3.16484 17.3203 3.28398 17.3203H15.6728C15.7918 17.3203 15.906 17.3679 15.9901 17.4526C16.0743 17.5374 16.1216 17.6524 16.1216 17.7722C16.1217 17.8317 16.1102 17.8905 16.0878 17.9455C16.0653 18.0005 16.0322 18.0504 15.9906 18.0925C15.9489 18.1346 15.8993 18.168 15.8448 18.1908C15.7903 18.2136 15.7318 18.2253 15.6728 18.2253Z" fill="#FF3E4C"/>
<path d="M15.6728 13.1218H3.28398C3.16484 13.1218 3.05057 13.0742 2.96621 12.9895C2.88185 12.9048 2.8343 12.7899 2.83398 12.6699C2.83398 12.5497 2.88139 12.4345 2.96578 12.3495C3.05018 12.2645 3.16464 12.2168 3.28398 12.2168H15.6728C15.7318 12.2168 15.7903 12.2285 15.8448 12.2513C15.8993 12.2741 15.9489 12.3075 15.9906 12.3496C16.0322 12.3917 16.0653 12.4416 16.0878 12.4966C16.1102 12.5516 16.1217 12.6105 16.1216 12.6699C16.1216 12.7898 16.0743 12.9047 15.9901 12.9894C15.906 13.0742 15.7918 13.1218 15.6728 13.1218Z" fill="#FF3E4C"/>
<path d="M15.6728 15.6745H3.28398C3.16464 15.6745 3.05018 15.6268 2.96578 15.5418C2.88139 15.4568 2.83398 15.3416 2.83398 15.2214C2.8343 15.1015 2.88185 14.9865 2.96621 14.9018C3.05057 14.8171 3.16484 14.7695 3.28398 14.7695H15.6728C15.7918 14.7695 15.906 14.8171 15.9901 14.9019C16.0743 14.9866 16.1216 15.1016 16.1216 15.2214C16.1217 15.2809 16.1102 15.3398 16.0878 15.3947C16.0653 15.4497 16.0322 15.4997 15.9906 15.5418C15.9489 15.5838 15.8993 15.6172 15.8448 15.64C15.7903 15.6628 15.7318 15.6745 15.6728 15.6745Z" fill="#FF3E4C"/>
<path d="M10.7864 10.571H3.28398C3.16484 10.571 3.05057 10.5235 2.96621 10.4387C2.88185 10.354 2.8343 10.2391 2.83398 10.1191C2.83398 9.99895 2.88139 9.88371 2.96578 9.79873C3.05018 9.71376 3.16464 9.66602 3.28398 9.66602H10.7864C10.9055 9.66634 11.0197 9.71421 11.1038 9.79915C11.1879 9.88408 11.2352 9.99916 11.2352 10.1191C11.2349 10.2389 11.1875 10.3536 11.1034 10.4383C11.0193 10.523 10.9053 10.5707 10.7864 10.571Z" fill="#FF3E4C"/>
<path d="M10.7864 8.01828H3.28398C3.16484 8.01828 3.05057 7.97069 2.96621 7.88598C2.88185 7.80127 2.8343 7.68635 2.83398 7.56639C2.83398 7.44622 2.88139 7.33094 2.96578 7.24597C3.05018 7.16099 3.16464 7.11328 3.28398 7.11328H10.7864C10.9055 7.1136 11.0197 7.16147 11.1038 7.24641C11.1879 7.33135 11.2352 7.44643 11.2352 7.56639C11.2349 7.68614 11.1875 7.80089 11.1034 7.88557C11.0193 7.97025 10.9053 8.01797 10.7864 8.01828Z" fill="#FF3E4C"/>
<path d="M22.0726 20.6152H7.06782C6.00346 20.6152 5.14062 21.484 5.14062 22.5557V27.0602C5.14062 28.1319 6.00346 29.0007 7.06782 29.0007H22.0726C23.137 29.0007 23.9998 28.1319 23.9998 27.0602V22.5557C23.9998 21.484 23.137 20.6152 22.0726 20.6152Z" fill="#FF3E4C"/>
<path d="M10.0626 25.7832V26.6616H9.16016V25.7832H10.0626Z" fill="white"/>
<path d="M11.39 25.3859V26.6606H10.5176V23.0273H11.9312C12.3596 23.0273 12.6872 23.1349 12.9116 23.3487C13.0251 23.4611 13.1138 23.5964 13.1717 23.7457C13.2296 23.895 13.2555 24.055 13.2476 24.2151C13.2519 24.4263 13.2002 24.6349 13.0976 24.8192C12.9928 24.9994 12.8375 25.1445 12.6512 25.2361C12.4264 25.3431 12.1797 25.3948 11.9312 25.3871L11.39 25.3859ZM12.3596 24.2151C12.3596 23.8929 12.1844 23.7318 11.834 23.7318H11.39V24.6778H11.834C12.1844 24.6811 12.3596 24.5268 12.3596 24.2151Z" fill="white"/>
<path d="M16.6957 25.7853C16.5455 26.06 16.3185 26.2844 16.0429 26.4305C15.7328 26.5904 15.388 26.6697 15.0397 26.6613H13.6777V23.028H15.0397C15.3883 23.0192 15.7336 23.0968 16.0453 23.254C16.3202 23.397 16.5466 23.619 16.6957 23.8919C16.8519 24.1816 16.9304 24.5073 16.9237 24.8368C16.9302 25.1675 16.8517 25.4942 16.6957 25.7853ZM15.7573 25.6029C15.8549 25.502 15.9305 25.3818 15.9792 25.2499C16.028 25.118 16.0489 24.9773 16.0405 24.8368C16.0489 24.6965 16.0281 24.5559 15.9793 24.4242C15.9305 24.2925 15.8549 24.1725 15.7573 24.072C15.5391 23.8791 15.254 23.781 14.9641 23.7989H14.5501V25.8747H14.9641C15.2537 25.8924 15.5386 25.7948 15.7573 25.6029Z" fill="white"/>
<path d="M19.7712 23.0273V23.7269H18.2916V24.5232H19.434V25.1914H18.2916V26.6606H17.418V23.0273H19.7712Z" fill="white"/>
<path d="M15.4533 7.11328H13.3317C12.9619 7.11328 12.6621 7.41514 12.6621 7.7875V9.92375C12.6621 10.2961 12.9619 10.598 13.3317 10.598H15.4533C15.8231 10.598 16.1229 10.2961 16.1229 9.92375V7.7875C16.1229 7.41514 15.8231 7.11328 15.4533 7.11328Z" fill="#FF3E4C"/>
</svg>
