<svg width="28" height="29" viewBox="0 0 28 29" fill="none" xmlns="http://www.w3.org/2000/svg">
<path d="M14.875 17.8335H13.125V21.3335H14.875V17.8335Z" fill="#5F6D7E"/>
<path d="M19.25 16.0835H17.5V21.3335H19.25V16.0835Z" fill="#5F6D7E"/>
<path d="M10.5 12.5835H8.75V21.3335H10.5V12.5835Z" fill="#5F6D7E"/>
<path d="M21.875 4.7085H19.25V3.8335C19.25 3.36937 19.0656 2.92425 18.7374 2.59606C18.4092 2.26787 17.9641 2.0835 17.5 2.0835H10.5C10.0359 2.0835 9.59075 2.26787 9.26256 2.59606C8.93437 2.92425 8.75 3.36937 8.75 3.8335V4.7085H6.125C5.66087 4.7085 5.21575 4.89287 4.88756 5.22106C4.55937 5.54925 4.375 5.99437 4.375 6.4585V24.8335C4.375 25.2976 4.55937 25.7427 4.88756 26.0709C5.21575 26.3991 5.66087 26.5835 6.125 26.5835H21.875C22.3391 26.5835 22.7842 26.3991 23.1124 26.0709C23.4406 25.7427 23.625 25.2976 23.625 24.8335V6.4585C23.625 5.99437 23.4406 5.54925 23.1124 5.22106C22.7842 4.89287 22.3391 4.7085 21.875 4.7085ZM10.5 3.8335H17.5V7.3335H10.5V3.8335ZM21.875 24.8335H6.125V6.4585H8.75V9.0835H19.25V6.4585H21.875V24.8335Z" fill="#5F6D7E"/>
</svg>
