<svg width="29" height="29" viewBox="0 0 29 29" fill="none" xmlns="http://www.w3.org/2000/svg">
<path d="M26.5833 12.041C26.5833 10.777 26.3343 9.52545 25.8506 8.35769C25.3669 7.18993 24.6579 6.12888 23.7642 5.23511C22.8704 4.34135 21.8093 3.63238 20.6416 3.14868C19.4738 2.66497 18.2222 2.41602 16.9583 2.41602H9.95825C7.86967 2.41602 5.86663 3.2457 4.38979 4.72255C2.91294 6.1994 2.08325 8.20244 2.08325 10.291V12.916C2.08325 14.0763 2.54419 15.1891 3.36466 16.0096C4.18513 16.8301 5.29793 17.291 6.45825 17.291H7.42075C7.62247 18.2792 8.15941 19.1674 8.94071 19.8052C9.72201 20.443 10.6997 20.7912 11.7083 20.791H12.9158L16.4158 26.916L17.9295 26.041L14.4295 20.0123C14.2887 19.7285 14.0735 19.4883 13.8069 19.3173C13.5404 19.1462 13.2323 19.0508 12.9158 19.041H11.7083C11.0121 19.041 10.3444 18.7645 9.8521 18.2722C9.35981 17.7799 9.08325 17.1122 9.08325 16.416C9.08325 15.7198 9.35981 15.0521 9.8521 14.5599C10.3444 14.0676 11.0121 13.791 11.7083 13.791H12.5833V12.041H11.7083C10.6997 12.0408 9.72201 12.3891 8.94071 13.0269C8.15941 13.6647 7.62247 14.5528 7.42075 15.541H6.45825C5.76206 15.541 5.09438 15.2645 4.6021 14.7722C4.10981 14.2799 3.83325 13.6122 3.83325 12.916V11.166H5.58325C6.27945 11.166 6.94712 10.8895 7.43941 10.3972C7.93169 9.90489 8.20825 9.23721 8.20825 8.54102V7.66602H6.45825V8.54102C6.45825 8.77308 6.36606 8.99564 6.20197 9.15973C6.03788 9.32383 5.81532 9.41602 5.58325 9.41602H3.90325C4.11348 7.95949 4.84109 6.62735 5.95296 5.6633C7.06484 4.69925 8.48664 4.16774 9.95825 4.16602H15.2083V5.91602C15.2083 6.14808 15.1161 6.37064 14.952 6.53473C14.7879 6.69883 14.5653 6.79102 14.3333 6.79102H12.5833V8.54102H14.3333C15.0294 8.54102 15.6971 8.26445 16.1894 7.77217C16.6817 7.27989 16.9583 6.61221 16.9583 5.91602V4.16602C18.423 4.16801 19.8583 4.57851 21.1026 5.35138C22.3469 6.12424 23.351 7.22884 24.002 8.54102H23.0833C22.3871 8.54102 21.7194 8.81758 21.2271 9.30986C20.7348 9.80214 20.4583 10.4698 20.4583 11.166V12.041H22.2083V11.166C22.2083 10.934 22.3004 10.7114 22.4645 10.5473C22.6286 10.3832 22.8512 10.291 23.0833 10.291H24.632C24.7661 10.8647 24.8336 11.4519 24.8333 12.041V12.916C24.8333 14.0763 24.3723 15.1891 23.5518 16.0096C22.7314 16.8301 21.6186 17.291 20.4583 17.291H17.8333V19.041H20.4583C21.3665 19.0398 22.2632 18.8365 23.0833 18.446V19.041C23.0833 19.7372 22.8067 20.4049 22.3144 20.8972C21.8221 21.3895 21.1544 21.666 20.4583 21.666H19.5833V23.416H20.4583C21.6186 23.416 22.7314 22.9551 23.5518 22.1346C24.3723 21.3141 24.8333 20.2013 24.8333 19.041V17.1948C25.9531 16.0518 26.5812 14.5161 26.5833 12.916V12.041Z" fill="#5F6D7E"/>
</svg>
