<svg width="28" height="28" viewBox="0 0 28 28" fill="none" xmlns="http://www.w3.org/2000/svg">
<path d="M13.125 17.5H7.875C7.17881 17.5 6.51113 17.7766 6.01884 18.2688C5.52656 18.7611 5.25 19.4288 5.25 20.125V21.875H7V20.125C7 19.8929 7.09219 19.6704 7.25628 19.5063C7.42038 19.3422 7.64294 19.25 7.875 19.25H13.125C13.3571 19.25 13.5796 19.3422 13.7437 19.5063C13.9078 19.6704 14 19.8929 14 20.125V21.875H15.75V20.125C15.75 19.4288 15.4734 18.7611 14.9812 18.2688C14.4889 17.7766 13.8212 17.5 13.125 17.5Z" fill="#5F6D7E"/>
<path d="M10.5 16.625C11.1922 16.625 11.8689 16.4197 12.4445 16.0351C13.0201 15.6506 13.4687 15.1039 13.7336 14.4644C13.9985 13.8249 14.0678 13.1211 13.9327 12.4422C13.7977 11.7633 13.4644 11.1396 12.9749 10.6501C12.4854 10.1606 11.8617 9.8273 11.1828 9.69225C10.5039 9.5572 9.80015 9.62651 9.16061 9.89142C8.52107 10.1563 7.97444 10.6049 7.58986 11.1805C7.20527 11.7561 7 12.4328 7 13.125C7 14.0533 7.36875 14.9435 8.02513 15.5999C8.6815 16.2563 9.57174 16.625 10.5 16.625ZM10.5 11.375C10.8461 11.375 11.1845 11.4776 11.4722 11.6699C11.76 11.8622 11.9843 12.1355 12.1168 12.4553C12.2492 12.7751 12.2839 13.1269 12.2164 13.4664C12.1489 13.8059 11.9822 14.1177 11.7374 14.3624C11.4927 14.6072 11.1809 14.7739 10.8414 14.8414C10.5019 14.9089 10.1501 14.8742 9.8303 14.7418C9.51053 14.6093 9.23722 14.385 9.04493 14.0972C8.85264 13.8095 8.75 13.4711 8.75 13.125C8.75 12.6609 8.93437 12.2158 9.26256 11.8876C9.59075 11.5594 10.0359 11.375 10.5 11.375Z" fill="#5F6D7E"/>
<path d="M24.5 16.625V24.5H3.5V7H14V5.25H3.5C3.03587 5.25 2.59075 5.43437 2.26256 5.76256C1.93437 6.09075 1.75 6.53587 1.75 7V24.5C1.75 24.9641 1.93437 25.4092 2.26256 25.7374C2.59075 26.0656 3.03587 26.25 3.5 26.25H24.5C24.9641 26.25 25.4092 26.0656 25.7374 25.7374C26.0656 25.4092 26.25 24.9641 26.25 24.5V16.625H24.5Z" fill="#5F6D7E"/>
<path d="M22.75 16.625H17.5V18.375H22.75V16.625Z" fill="#5F6D7E"/>
<path d="M22.75 20.125H19.25V21.875H22.75V20.125Z" fill="#5F6D7E"/>
<path d="M28 8.75V7H26.1615C26.0487 6.4523 25.8313 5.93152 25.5211 5.46621L26.8249 4.16246L25.5876 2.92521L24.2839 4.22896C23.8185 3.91878 23.2977 3.70131 22.75 3.58846V1.75H21V3.58846C20.4523 3.70129 19.9315 3.91873 19.4662 4.22888L18.1625 2.92512L16.9252 4.16237L18.229 5.46613C17.9188 5.93146 17.7013 6.45227 17.5885 7H15.75V8.75H17.5885C17.7013 9.2977 17.9187 9.81848 18.2289 10.2838L16.9251 11.5875L18.1624 12.8248L19.4661 11.521C19.9315 11.8312 20.4523 12.0487 21 12.1615V14H22.75V12.1615C23.2977 12.0487 23.8185 11.8313 24.2838 11.5211L25.5875 12.8249L26.8248 11.5876L25.521 10.2839C25.8312 9.81855 26.0487 9.29773 26.1615 8.75H28ZM21.875 10.5C21.3558 10.5 20.8483 10.346 20.4166 10.0576C19.9849 9.76917 19.6485 9.3592 19.4498 8.87954C19.2511 8.39989 19.1992 7.87209 19.3004 7.36289C19.4017 6.85369 19.6517 6.38596 20.0188 6.01884C20.386 5.65173 20.8537 5.40172 21.3629 5.30044C21.8721 5.19915 22.3999 5.25114 22.8795 5.44982C23.3592 5.6485 23.7692 5.98495 24.0576 6.41663C24.346 6.84831 24.5 7.35582 24.5 7.875C24.4992 8.57096 24.2224 9.23819 23.7303 9.73031C23.2382 10.2224 22.571 10.4992 21.875 10.5Z" fill="#5F6D7E"/>
</svg>
