<svg width="28" height="29" viewBox="0 0 28 29" fill="none" xmlns="http://www.w3.org/2000/svg">
<path d="M7 26.5835H1.75V21.3335H7V26.5835ZM3.5 24.8335H5.25V23.0835H3.5V24.8335Z" fill="#5F6D7E"/>
<path d="M16.625 26.5835H11.375V21.3335H16.625V26.5835ZM13.125 24.8335H14.875V23.0835H13.125V24.8335Z" fill="#5F6D7E"/>
<path d="M26.25 26.5835H21V21.3335H26.25V26.5835ZM22.75 24.8335H24.5V23.0835H22.75V24.8335Z" fill="#5F6D7E"/>
<path d="M14 9.0835C13.3078 9.0835 12.6311 8.87823 12.0555 8.49364C11.4799 8.10906 11.0313 7.56243 10.7664 6.92289C10.5015 6.28335 10.4322 5.57961 10.5673 4.90068C10.7023 4.22175 11.0356 3.59811 11.5251 3.10862C12.0146 2.61914 12.6383 2.2858 13.3172 2.15075C13.9961 2.0157 14.6999 2.08501 15.3394 2.34992C15.9789 2.61483 16.5256 3.06343 16.9101 3.639C17.2947 4.21457 17.5 4.89126 17.5 5.5835C17.499 6.51144 17.1299 7.40107 16.4737 8.05722C15.8176 8.71337 14.9279 9.08246 14 9.0835ZM14 3.8335C13.6539 3.8335 13.3155 3.93613 13.0278 4.12843C12.74 4.32072 12.5157 4.59403 12.3832 4.9138C12.2508 5.23357 12.2161 5.58544 12.2836 5.92491C12.3511 6.26437 12.5178 6.57619 12.7626 6.82093C13.0073 7.06568 13.3191 7.23235 13.6586 7.29987C13.9981 7.3674 14.3499 7.33274 14.6697 7.20029C14.9895 7.06783 15.2628 6.84353 15.4551 6.55575C15.6474 6.26796 15.75 5.92961 15.75 5.5835C15.7495 5.11951 15.565 4.67466 15.2369 4.34657C14.9088 4.01848 14.464 3.83396 14 3.8335Z" fill="#5F6D7E"/>
<path d="M22.75 14.3335H18.375C17.4471 14.3325 16.5574 13.9634 15.9013 13.3072C15.2451 12.6511 14.876 11.7614 14.875 10.8335H13.125C13.124 11.7614 12.7549 12.6511 12.0987 13.3072C11.4426 13.9634 10.5529 14.3325 9.625 14.3335H5.25C4.78603 14.334 4.34122 14.5186 4.01315 14.8466C3.68508 15.1747 3.50053 15.6195 3.5 16.0835V19.5835H5.25V16.0835H9.625C10.9183 16.0831 12.1654 15.603 13.125 14.736V19.5835H14.875V14.736C15.8346 15.603 17.0817 16.0831 18.375 16.0835H22.75V19.5835H24.5V16.0835C24.4995 15.6195 24.3149 15.1747 23.9868 14.8466C23.6588 14.5186 23.214 14.334 22.75 14.3335Z" fill="#5F6D7E"/>
</svg>
