<svg xmlns="http://www.w3.org/2000/svg" viewBox="0 0 399.4 46.31"><defs><style>.cls-1{fill:#134c26;}</style></defs><g id="Layer_2" data-name="Layer 2"><g id="Layer_1-2" data-name="Layer 1"><g id="Layer_2-2" data-name="Layer 2"><g id="Layer_1-2-2" data-name="Layer 1-2"><path class="cls-1" d="M37.3.91l-6.2,36.8H22.9l-7-14.1a38.24,38.24,0,0,1-3.6-9.2c0,.5.1,1,.1,1.3a27.1,27.1,0,0,1-.4,4l-3,18H0L6.2.91h9.9l4,8.5a116.69,116.69,0,0,1,5.5,13.1c0-.7-.1-1.3-.1-1.6.1-2,.4-4,.7-6L28.6,1h8.7Z"/><path class="cls-1" d="M37.5,37.71,43.6.91H58.8a25.77,25.77,0,0,1,6.8.7A8.58,8.58,0,0,1,71.8,10a7.92,7.92,0,0,1-2.1,5.7,10.51,10.51,0,0,1-5.7,3.2c4.1,1.4,6.1,4.1,6.1,8a10.85,10.85,0,0,1-2.9,7.5c-1.9,2.1-5.1,3.2-9.6,3.2Zm12-8.1H55c1.7,0,2.9-.4,3.5-1.1a3.45,3.45,0,0,0,1-2.3,3.25,3.25,0,0,0-1.1-2.5,4.55,4.55,0,0,0-3.2-1H50.6ZM52,15h4.2c3.3,0,5-1.1,5-3.3,0-2-1.3-2.9-4-2.9H53Z"/><path class="cls-1" d="M90.5,38.61a16.29,16.29,0,0,1-11.3-4.3c-3.2-2.8-4.8-6.9-4.8-12.2a23.12,23.12,0,0,1,5.4-15.7A17.25,17.25,0,0,1,93.8,0a15.3,15.3,0,0,1,11.3,4.5c3,3,4.4,6.9,4.4,11.8a24,24,0,0,1-5.3,15.8A16.24,16.24,0,0,1,90.5,38.61Zm.1-8.5a4.64,4.64,0,0,0,4.3-2.4,19.75,19.75,0,0,0,2.3-7.1q.6-3.15.9-6.3A6.64,6.64,0,0,0,96.8,10a4.54,4.54,0,0,0-3.5-1.5c-2.7,0-4.7,1.9-5.8,5.7a38.89,38.89,0,0,0-1.7,10.2Q86,30.11,90.6,30.11Z"/><path class="cls-1" d="M137.6,28.91l-1.5,8.8H111L117.1.91h11.2l-4.7,27.9h14Z"/><path class="cls-1" d="M169.7,26.11H151a8.6,8.6,0,0,0-.1,1.6,3.55,3.55,0,0,0,1.1,2.8,4.27,4.27,0,0,0,2.9,1,4.76,4.76,0,0,0,4.7-3.4l9.2,1.5A13.84,13.84,0,0,1,163,36a16.08,16.08,0,0,1-8.8,2.5,14,14,0,0,1-9.9-3.5,12,12,0,0,1-3.8-9.4,15.62,15.62,0,0,1,15.4-15.8h.8c4.1,0,7.3,1.2,9.7,3.6A12.71,12.71,0,0,1,170,23,16.28,16.28,0,0,1,169.7,26.11Zm-9.8-5.2a5.7,5.7,0,0,0,.1-1.3,3.84,3.84,0,0,0-.9-2.5,3.41,3.41,0,0,0-2.5-1.1,4.39,4.39,0,0,0-3.1,1.3,5.55,5.55,0,0,0-1.7,3.6Z"/><path class="cls-1" d="M199.8,37.71H189.2a5.28,5.28,0,0,1-.1-1.3c0-1.1.1-2.2.2-3.2a9.92,9.92,0,0,1-8.9,5.1,8.76,8.76,0,0,1-6.2-2.2,7.08,7.08,0,0,1-2.4-5.6,8.45,8.45,0,0,1,1.3-4.6,9.06,9.06,0,0,1,3.7-3.3,14.12,14.12,0,0,1,4.9-1.6c1.6-.3,4.9-.6,9.7-1.1a4.15,4.15,0,0,0,.3-1.6c0-1.5-1-2.2-3.1-2.2a4.81,4.81,0,0,0-4.5,3l-8.9-1.8c2.3-5,7.2-7.6,14.8-7.6,3.9,0,6.9.7,9.1,2a6.55,6.55,0,0,1,3.3,5.9A116.71,116.71,0,0,1,200.5,30a30.92,30.92,0,0,0-.7,5.2A7,7,0,0,0,199.8,37.71Zm-9.5-12.9c-4.9.4-7.4,2-7.4,4.7a2.09,2.09,0,0,0,2.4,2.3,4.48,4.48,0,0,0,3.1-1.4C189.3,29.51,190,27.61,190.3,24.81Z"/><path class="cls-1" d="M237.6.91l-6.1,36.8h-9.7l.7-4.1c-2.2,3.3-4.9,4.9-8.1,4.9a8.72,8.72,0,0,1-6.4-2.9c-1.8-1.9-2.7-4.7-2.7-8.3a20.82,20.82,0,0,1,3.7-12.1c2.5-3.6,5.6-5.4,9.5-5.4,3.3,0,5.5,1.3,6.7,3.9L227.3,1h10.3ZM224,20.21a3.16,3.16,0,0,0-.7-2.9,3,3,0,0,0-2-.8c-1.8,0-3.2,1.4-4,4.3a28.53,28.53,0,0,0-1.2,7.1c0,2.5,1,3.7,2.9,3.7s3.2-1.2,3.8-3.7Z"/><path class="cls-1" d="M267.1,26.11H248.3a8.6,8.6,0,0,0-.1,1.6,3.55,3.55,0,0,0,1.1,2.8,4.27,4.27,0,0,0,2.9,1,4.76,4.76,0,0,0,4.7-3.4l9.2,1.5a13.84,13.84,0,0,1-5.8,6.4,17,17,0,0,1-8.8,2.5,14,14,0,0,1-9.9-3.5,12,12,0,0,1-3.8-9.4,15.62,15.62,0,0,1,15.4-15.8h.8c4.1,0,7.3,1.2,9.7,3.6a12.71,12.71,0,0,1,3.6,9.6C267.3,24,267.2,25.11,267.1,26.11Zm-9.9-5.2a5.7,5.7,0,0,0,.1-1.3,3.84,3.84,0,0,0-.9-2.5,3.41,3.41,0,0,0-2.5-1.1,4.39,4.39,0,0,0-3.1,1.3,5.55,5.55,0,0,0-1.7,3.6Z"/><path class="cls-1" d="M273.9,10.51H283l-1.1,6.6c1.9-4.9,4.8-7.4,8.7-7.4.4,0,.9.1,1.3.1l-1.2,9.7c-.9,0-1.5-.1-1.9-.1-2.2,0-3.9.5-5,1.6s-1.8,2.9-2.2,5.6l-1.9,11.1H269.3Z"/><path class="cls-1" d="M318.5,16.81l-8,1.8c-.6-1.8-2.3-2.6-5-2.6-1.9,0-2.9.5-2.9,1.6s.9,1.6,2.8,1.9a37.76,37.76,0,0,1,8,2.1,9.22,9.22,0,0,1,3.5,3,7.21,7.21,0,0,1,1.2,4,8.77,8.77,0,0,1-3.4,6.9c-2.3,1.9-5.8,2.8-10.5,2.8a19.47,19.47,0,0,1-9.1-2,8.75,8.75,0,0,1-4.8-6.1l8.5-1.2c.7,2,2.6,2.9,5.7,2.9a5,5,0,0,0,2.7-.5q.9-.6.9-1.2a1.1,1.1,0,0,0-.6-1,17.1,17.1,0,0,0-3-.9,52.67,52.67,0,0,1-6.8-1.9,8.19,8.19,0,0,1-3.4-2.7,7.36,7.36,0,0,1-1.4-4.3,8.52,8.52,0,0,1,3.3-6.9q3.3-2.7,9-2.7a18,18,0,0,1,8.8,2A9.22,9.22,0,0,1,318.5,16.81Z"/><path class="cls-1" d="M336.7.91l-2.1,12.9a9.7,9.7,0,0,1,13.3-2.5c1.6,1.1,2.4,2.9,2.4,5.6a15.53,15.53,0,0,1-.4,3.7L347,37.81H336.6l2.7-16.1a20,20,0,0,0,.4-2.4c0-1.5-.9-2.2-2.6-2.2a4.14,4.14,0,0,0-1.9.5,3.74,3.74,0,0,0-1.2,1.3,9,9,0,0,0-.7,2.7l-2.7,16.1H320.3L326.4.91Z"/><path class="cls-1" d="M367.7,10.51l-4.6,27.2H352.6l4.5-27.2ZM369.5.11l-1.3,8H357.6l1.3-8Z"/><path class="cls-1" d="M373.4,10.51h9.7l-.7,4.4a11.5,11.5,0,0,1,3.7-4.2,7.85,7.85,0,0,1,4-.9,8.58,8.58,0,0,1,6.8,3.1c1.7,2.1,2.5,4.9,2.5,8.5a20.89,20.89,0,0,1-3.5,11.7,10.61,10.61,0,0,1-9.4,5.2,7.6,7.6,0,0,1-6.8-3.8l-2,11.8H367.3Zm8.7,9.8a55.88,55.88,0,0,0-1.2,8.2,4,4,0,0,0,.7,2.4,2.43,2.43,0,0,0,2.1.9,2.85,2.85,0,0,0,2.5-1.4,13.61,13.61,0,0,0,1.6-4.8,27.38,27.38,0,0,0,.7-5c0-2.7-1-4-3-4C383.9,16.61,382.8,17.81,382.1,20.31Z"/></g></g></g></g></svg>