<svg width="37" height="25" viewBox="0 0 37 25" fill="none" xmlns="http://www.w3.org/2000/svg">
<path d="M29.525 9.66059C28.505 4.48559 23.96 0.600586 18.5 0.600586C14.165 0.600586 10.4 3.06059 8.525 6.66059C4.01 7.14059 0.5 10.9656 0.5 15.6006C0.5 20.5656 4.535 24.6006 9.5 24.6006H29C33.14 24.6006 36.5 21.2406 36.5 17.1006C36.5 13.1406 33.425 9.93059 29.525 9.66059ZM29 21.6006H9.5C6.185 21.6006 3.5 18.9156 3.5 15.6006C3.5 12.5256 5.795 9.96059 8.84 9.64559L10.445 9.48059L11.195 8.05559C12.62 5.31059 15.41 3.60059 18.5 3.60059C22.43 3.60059 25.82 6.39059 26.585 10.2456L27.035 12.4956L29.33 12.6606C31.67 12.8106 33.5 14.7756 33.5 17.1006C33.5 19.5756 31.475 21.6006 29 21.6006ZM12.5 14.1006H16.325V18.6006H20.675V14.1006H24.5L18.5 8.10059L12.5 14.1006Z" fill="#2970FF"/>
</svg>
