<svg width="24" height="29" viewBox="0 0 24 29" fill="none" xmlns="http://www.w3.org/2000/svg">
<g opacity="0.3">
<path opacity="0.3" d="M16.7604 5.95079C16.1044 5.95015 15.4754 5.68744 15.0115 5.22034C14.5476 4.75323 14.2866 4.11989 14.286 3.4593V0H3.22922C2.37278 0 1.55141 0.342576 0.94582 0.952349C0.340228 1.56212 0 2.38913 0 3.25148V22.8522C0 23.7146 0.340228 24.5416 0.94582 25.1514C1.55141 25.7612 2.37278 26.1038 3.22922 26.1038H16.5012C17.3576 26.1038 18.179 25.7612 18.7846 25.1514C19.3902 24.5416 19.7304 23.7146 19.7304 22.8522V5.95079H16.7604Z" fill="#00C650"/>
</g>
<path d="M19.7296 5.95079H16.7596C16.1035 5.95015 15.4745 5.68744 15.0106 5.22034C14.5467 4.75323 14.2858 4.11989 14.2852 3.4593V0L19.7296 5.95079Z" fill="#00C650"/>
<path d="M22.0726 20.6152H7.06783C6.00347 20.6152 5.14062 21.484 5.14062 22.5557V27.0602C5.14062 28.1319 6.00347 29.0007 7.06783 29.0007H22.0726C23.137 29.0007 23.9998 28.1319 23.9998 27.0602V22.5557C23.9998 21.484 23.137 20.6152 22.0726 20.6152Z" fill="#00C650"/>
<path d="M10.4915 25.7832V26.6616H9.58789V25.7832H10.4915Z" fill="white"/>
<path d="M13.1347 26.6606L12.3752 25.5297L11.7212 26.6606H10.7216L11.8747 24.7902L10.6855 23.0273H11.7212L12.4616 24.122L13.1 23.0273H14.0947L12.9571 24.8567L14.1716 26.6606H13.1347Z" fill="white"/>
<path d="M16.9562 26.1678C16.8527 26.3346 16.7041 26.4683 16.5278 26.5532C16.3133 26.6544 16.0782 26.7036 15.8414 26.697C15.4842 26.7121 15.1321 26.6071 14.8406 26.3985C14.7117 26.3011 14.6062 26.1757 14.5321 26.0316C14.4579 25.8874 14.4169 25.7283 14.4122 25.5661H15.341C15.3477 25.6884 15.3994 25.8039 15.4862 25.8899C15.5726 25.971 15.6873 26.0144 15.8054 26.0107C15.8535 26.0135 15.9017 26.0068 15.9472 25.9908C15.9928 25.9748 16.0347 25.95 16.0706 25.9177C16.1026 25.8864 16.1278 25.8488 16.1446 25.8072C16.1613 25.7655 16.1692 25.7209 16.1678 25.676C16.169 25.6334 16.1617 25.591 16.1462 25.5514C16.1307 25.5117 16.1075 25.4756 16.0778 25.4452C16.0143 25.3805 15.9389 25.3288 15.8558 25.293C15.7686 25.2543 15.6462 25.2072 15.4886 25.1516C15.2974 25.0881 15.1106 25.0118 14.9294 24.9232C14.7806 24.846 14.6528 24.7332 14.5574 24.5946C14.4467 24.4268 14.3921 24.2279 14.4014 24.0267C14.3971 23.8273 14.4541 23.6315 14.5646 23.466C14.6782 23.3044 14.8351 23.1786 15.017 23.1036C15.2268 23.0177 15.4519 22.9765 15.6782 22.9827C16.0219 22.9636 16.3613 23.0658 16.6382 23.2715C16.7561 23.3681 16.8526 23.4883 16.9217 23.6246C16.9907 23.7609 17.0306 23.9102 17.039 24.0629H16.0946C16.0841 23.956 16.0385 23.8557 15.965 23.7778C15.9275 23.7416 15.883 23.7135 15.8343 23.6952C15.7856 23.6769 15.7337 23.6688 15.6818 23.6714C15.5918 23.6673 15.5035 23.6966 15.4334 23.7536C15.4011 23.7845 15.376 23.8221 15.3598 23.8639C15.3436 23.9057 15.3368 23.9506 15.3398 23.9953C15.338 24.0765 15.3682 24.1551 15.4238 24.214C15.4835 24.2768 15.5554 24.3265 15.635 24.3602C15.7202 24.3976 15.8426 24.446 16.0022 24.504C16.1969 24.5678 16.3867 24.6462 16.5698 24.7384C16.7194 24.8196 16.8484 24.9346 16.9466 25.0743C17.0586 25.2447 17.1141 25.4465 17.105 25.6506C17.1034 25.8335 17.0519 26.0124 16.9562 26.1678Z" fill="white"/>
<path d="M18.4591 25.9876H19.6279V26.6606H17.5879V23.0273H18.4615L18.4591 25.9876Z" fill="white"/>
<path d="M14.2667 18.2256H5.46834C4.70634 18.2256 4.08594 17.462 4.08594 16.5219V10.0951C4.08594 9.15622 4.70634 8.39258 5.46834 8.39258H14.2704C15.0312 8.39258 15.6516 9.15622 15.6516 10.0951V16.5219C15.648 17.462 15.0275 18.2256 14.2667 18.2256ZM5.46834 9.26254C5.09514 9.26254 4.79275 9.63591 4.79275 10.0951V16.5219C4.79275 16.9811 5.09514 17.3544 5.46834 17.3544H14.2704C14.6424 17.3544 14.9447 16.9811 14.9447 16.5219V10.0951C14.9447 9.63591 14.6424 9.26254 14.2704 9.26254H5.46834Z" fill="#00C650"/>
<path d="M15.2943 14.3555H4.43555V15.2266H15.2943V14.3555Z" fill="#00C650"/>
<path d="M15.2943 11.3691H4.43555V12.2403H15.2943V11.3691Z" fill="#00C650"/>
<path d="M12.5136 8.82812H11.6484V17.79H12.5136V8.82812Z" fill="#00C650"/>
<path d="M8.08199 8.82812H7.2168V17.79H8.08199V8.82812Z" fill="#00C650"/>
</svg>
