<svg width="19" height="20" viewBox="0 0 19 20" fill="none" xmlns="http://www.w3.org/2000/svg">
<path d="M9.49935 18.3337C14.1017 18.3337 17.8327 14.6027 17.8327 10.0003C17.8327 5.39795 14.1017 1.66699 9.49935 1.66699C4.89698 1.66699 1.16602 5.39795 1.16602 10.0003C1.16602 14.6027 4.89698 18.3337 9.49935 18.3337Z" stroke="#A4A7AE" stroke-width="1.66667" stroke-linecap="round" stroke-linejoin="round"/>
<path d="M7.41602 7.47144C7.41602 7.0737 7.41602 6.87483 7.49913 6.76381C7.57157 6.66705 7.68244 6.60652 7.803 6.59791C7.94134 6.58803 8.10862 6.69557 8.44319 6.91065L12.377 9.43954C12.6673 9.62618 12.8125 9.71949 12.8626 9.83815C12.9064 9.94183 12.9064 10.0588 12.8626 10.1625C12.8125 10.2812 12.6673 10.3745 12.377 10.5611L8.44319 13.09C8.10862 13.3051 7.94134 13.4126 7.803 13.4027C7.68244 13.3941 7.57157 13.3336 7.49913 13.2368C7.41602 13.1258 7.41602 12.927 7.41602 12.5292V7.47144Z" stroke="#A4A7AE" stroke-width="1.66667" stroke-linecap="round" stroke-linejoin="round"/>
</svg>
