<svg width="28" height="29" viewBox="0 0 28 29" fill="none" xmlns="http://www.w3.org/2000/svg">
<path d="M22.75 12.916H21V14.666H22.75C23.446 14.6668 24.1132 14.9436 24.6053 15.4357C25.0974 15.9278 25.3742 16.5951 25.375 17.291V20.791H27.125V17.291C27.1237 16.1311 26.6623 15.0191 25.8421 14.1989C25.0219 13.3787 23.9099 12.9174 22.75 12.916Z" fill="#5F6D7E"/>
<path d="M21 4.16602C21.5192 4.16602 22.0267 4.31997 22.4584 4.60841C22.8901 4.89685 23.2265 5.30682 23.4252 5.78647C23.6239 6.26613 23.6758 6.79393 23.5746 7.30313C23.4733 7.81233 23.2233 8.28006 22.8562 8.64717C22.489 9.01428 22.0213 9.26429 21.5121 9.36558C21.0029 9.46686 20.4751 9.41488 19.9955 9.2162C19.5158 9.01752 19.1058 8.68107 18.8174 8.24939C18.529 7.81771 18.375 7.31019 18.375 6.79102C18.375 6.09482 18.6516 5.42714 19.1438 4.93486C19.6361 4.44258 20.3038 4.16602 21 4.16602ZM21 2.41602C20.1347 2.41602 19.2888 2.6726 18.5694 3.15334C17.8499 3.63407 17.2892 4.31735 16.958 5.11678C16.6269 5.9162 16.5403 6.79587 16.7091 7.64454C16.8779 8.4932 17.2946 9.27275 17.9064 9.88461C18.5183 10.4965 19.2978 10.9131 20.1465 11.082C20.9951 11.2508 21.8748 11.1641 22.6742 10.833C23.4737 10.5019 24.1569 9.9411 24.6377 9.22164C25.1184 8.50217 25.375 7.65631 25.375 6.79102C25.375 5.63069 24.9141 4.5179 24.0936 3.69742C23.2731 2.87695 22.1603 2.41602 21 2.41602Z" fill="#5F6D7E"/>
<path d="M20.125 26.916H18.375V25.166C18.3742 24.4701 18.0974 23.8028 17.6053 23.3107C17.1132 22.8186 16.446 22.5418 15.75 22.541H12.25C11.554 22.5418 10.8868 22.8186 10.3947 23.3107C9.90257 23.8028 9.62576 24.4701 9.625 25.166V26.916H7.875V25.166C7.87637 24.0061 8.33774 22.8941 9.15792 22.0739C9.97809 21.2538 11.0901 20.7924 12.25 20.791H15.75C16.9099 20.7924 18.0219 21.2538 18.8421 22.0739C19.6623 22.8941 20.1236 24.0061 20.125 25.166V26.916Z" fill="#5F6D7E"/>
<path d="M14 12.041C14.5192 12.041 15.0267 12.195 15.4584 12.4834C15.89 12.7718 16.2265 13.1818 16.4252 13.6615C16.6239 14.1411 16.6758 14.6689 16.5746 15.1781C16.4733 15.6873 16.2233 16.1551 15.8562 16.5222C15.489 16.8893 15.0213 17.1393 14.5121 17.2406C14.0029 17.3419 13.4751 17.2899 12.9955 17.0912C12.5158 16.8925 12.1058 16.5561 11.8174 16.1244C11.529 15.6927 11.375 15.1852 11.375 14.666C11.375 13.9698 11.6516 13.3021 12.1438 12.8099C12.6361 12.3176 13.3038 12.041 14 12.041ZM14 10.291C13.1347 10.291 12.2888 10.5476 11.5694 11.0283C10.8499 11.5091 10.2892 12.1923 9.95803 12.9918C9.62689 13.7912 9.54025 14.6709 9.70906 15.5195C9.87787 16.3682 10.2946 17.1478 10.9064 17.7596C11.5183 18.3715 12.2978 18.7881 13.1465 18.957C13.9951 19.1258 14.8748 19.0391 15.6742 18.708C16.4737 18.3769 17.1569 17.8161 17.6377 17.0966C18.1184 16.3772 18.375 15.5313 18.375 14.666C18.375 13.5057 17.9141 12.3929 17.0936 11.5724C16.2731 10.752 15.1603 10.291 14 10.291Z" fill="#5F6D7E"/>
<path d="M7 12.916H5.25C4.0901 12.9174 2.97809 13.3788 2.15792 14.1989C1.33774 15.0191 0.876366 16.1311 0.875 17.291V20.791H2.625V17.291C2.62576 16.5951 2.90257 15.9278 3.39469 15.4357C3.88681 14.9436 4.55404 14.6668 5.25 14.666H7V12.916Z" fill="#5F6D7E"/>
<path d="M7 4.16602C7.51918 4.16602 8.02669 4.31997 8.45837 4.60841C8.89005 4.89685 9.2265 5.30682 9.42518 5.78647C9.62386 6.26613 9.67585 6.79393 9.57456 7.30313C9.47328 7.81233 9.22327 8.28006 8.85616 8.64717C8.48904 9.01428 8.02131 9.26429 7.51211 9.36558C7.00291 9.46686 6.47511 9.41488 5.99546 9.2162C5.5158 9.01752 5.10583 8.68107 4.81739 8.24939C4.52895 7.81771 4.375 7.31019 4.375 6.79102C4.375 6.09482 4.65156 5.42714 5.14384 4.93486C5.63613 4.44258 6.30381 4.16602 7 4.16602ZM7 2.41602C6.13471 2.41602 5.28885 2.6726 4.56938 3.15334C3.84992 3.63407 3.28916 4.31735 2.95803 5.11678C2.62689 5.9162 2.54025 6.79587 2.70906 7.64454C2.87787 8.4932 3.29455 9.27275 3.90641 9.88461C4.51826 10.4965 5.29781 10.9131 6.14648 11.082C6.99515 11.2508 7.87481 11.1641 8.67424 10.833C9.47367 10.5019 10.1569 9.9411 10.6377 9.22164C11.1184 8.50217 11.375 7.65631 11.375 6.79102C11.375 5.63069 10.9141 4.5179 10.0936 3.69742C9.27312 2.87695 8.16032 2.41602 7 2.41602Z" fill="#5F6D7E"/>
</svg>
