<svg width="28" height="28" viewBox="0 0 28 28" fill="none" xmlns="http://www.w3.org/2000/svg">
<path d="M8.75 26.25H7V23.625H3.5V26.25H1.75V23.625C1.75053 23.161 1.93508 22.7162 2.26315 22.3882C2.59122 22.0601 3.03603 21.8755 3.5 21.875H7C7.46397 21.8755 7.90877 22.0601 8.23685 22.3882C8.56492 22.7162 8.74947 23.161 8.75 23.625V26.25Z" fill="#5F6D7E"/>
<path d="M26.25 26.25H24.5V23.625H21V26.25H19.25V23.625C19.2505 23.161 19.4351 22.7162 19.7632 22.3882C20.0912 22.0601 20.536 21.8755 21 21.875H24.5C24.964 21.8755 25.4088 22.0601 25.7368 22.3882C26.0649 22.7162 26.2495 23.161 26.25 23.625V26.25Z" fill="#5F6D7E"/>
<path d="M17.5 26.25H15.75V23.625H12.25V26.25H10.5V23.625C10.5005 23.161 10.6851 22.7162 11.0132 22.3882C11.3412 22.0601 11.786 21.8755 12.25 21.875H15.75C16.214 21.8755 16.6588 22.0601 16.9868 22.3882C17.3149 22.7162 17.4995 23.161 17.5 23.625V26.25Z" fill="#5F6D7E"/>
<path d="M14 21C14.9665 21 15.75 20.2165 15.75 19.25C15.75 18.2835 14.9665 17.5 14 17.5C13.0335 17.5 12.25 18.2835 12.25 19.25C12.25 20.2165 13.0335 21 14 21Z" fill="#5F6D7E"/>
<path d="M5.25 21C6.2165 21 7 20.2165 7 19.25C7 18.2835 6.2165 17.5 5.25 17.5C4.2835 17.5 3.5 18.2835 3.5 19.25C3.5 20.2165 4.2835 21 5.25 21Z" fill="#5F6D7E"/>
<path d="M22.75 21C23.7165 21 24.5 20.2165 24.5 19.25C24.5 18.2835 23.7165 17.5 22.75 17.5C21.7835 17.5 21 18.2835 21 19.25C21 20.2165 21.7835 21 22.75 21Z" fill="#5F6D7E"/>
<path d="M18.375 17.5C19.3415 17.5 20.125 16.7165 20.125 15.75C20.125 14.7835 19.3415 14 18.375 14C17.4085 14 16.625 14.7835 16.625 15.75C16.625 16.7165 17.4085 17.5 18.375 17.5Z" fill="#5F6D7E"/>
<path d="M9.625 17.5C10.5915 17.5 11.375 16.7165 11.375 15.75C11.375 14.7835 10.5915 14 9.625 14C8.6585 14 7.875 14.7835 7.875 15.75C7.875 16.7165 8.6585 17.5 9.625 17.5Z" fill="#5F6D7E"/>
<path d="M22.75 12.25H5.25C4.78603 12.2495 4.34122 12.0649 4.01315 11.7368C3.68508 11.4088 3.50053 10.964 3.5 10.5V3.5C3.50053 3.03603 3.68508 2.59122 4.01315 2.26315C4.34122 1.93508 4.78603 1.75053 5.25 1.75H22.75C23.214 1.75053 23.6588 1.93508 23.9868 2.26315C24.3149 2.59122 24.4995 3.03603 24.5 3.5V10.5C24.4995 10.964 24.3149 11.4088 23.9868 11.7368C23.6588 12.0649 23.214 12.2495 22.75 12.25ZM5.25 3.5V10.5H22.75V3.5H5.25Z" fill="#5F6D7E"/>
</svg>
