<svg width="14" height="16" viewBox="0 0 14 16" fill="none" xmlns="http://www.w3.org/2000/svg">
<path d="M0 8.5H7.58595L5.79295 10.2929L6.5 11L9.5 8L6.5 5L5.79295 5.70705L7.58595 7.5H0V8.5Z" fill="#155EEF"/>
<path d="M13.252 4.0681L7.25195 0.5681C7.17405 0.5227 7.08705 0.5 7 0.5C6.91295 0.5 6.82595 0.5227 6.74805 0.5681L0.74805 4.0681C0.5945 4.1577 0.5 4.32225 0.5 4.5V6H1.5V4.7871L7 1.57885L12.5 4.7871V11.2129L7 14.4212L1.13625 11L0.63235 11.8638L6.74805 15.4319C6.82595 15.4773 6.91295 15.5 7 15.5C7.08705 15.5 7.17405 15.4773 7.25195 15.4319L13.252 11.9319C13.4055 11.8423 13.5 11.6777 13.5 11.5V4.49995C13.5 4.3222 13.4055 4.1577 13.252 4.0681Z" fill="#155EEF"/>
</svg>
