<svg width="14" height="14" viewBox="0 0 14 14" fill="none" xmlns="http://www.w3.org/2000/svg">
<path d="M7.66699 2.5L2.66699 7.5L3.37199 8.205L7.16699 4.415V13H0.666992V14H7.16699C7.43221 14 7.68656 13.8946 7.8741 13.7071C8.06164 13.5196 8.16699 13.2652 8.16699 13V4.415L11.962 8.205L12.667 7.5L7.66699 2.5Z" fill="white"/>
<path d="M2.66699 3V1H12.667V3H13.667V1C13.667 0.734784 13.5616 0.48043 13.3741 0.292893C13.1866 0.105357 12.9322 0 12.667 0H2.66699C2.40178 0 2.14742 0.105357 1.95989 0.292893C1.77235 0.48043 1.66699 0.734784 1.66699 1V3H2.66699Z" fill="white"/>
</svg>
